<svg height='100px' width='100px'  fill="#000000" xmlns="http://www.w3.org/2000/svg" data-name="Layer 1" viewBox="0 0 100 100" x="0px" y="0px"><title>Anderson_Kayla_WoodlandParkFinal</title><path d="M67,57.32a16.15,16.15,0,0,0-1.22-3.44c-2.32-4.79-9.08-8.82-14.39-9.2-18.9-1.33-36.61,22.75-33.87,34.64A17.86,17.86,0,0,0,30.66,92.58a18.3,18.3,0,0,0,11.58-.87A16.78,16.78,0,0,1,55.13,92,16,16,0,0,0,71.72,65.18,15,15,0,0,1,67,57.32Z"></path><ellipse cx="14.5" cy="43.35" rx="10.61" ry="14.94" transform="translate(-11.18 5.53) rotate(-15.68)"></ellipse><ellipse cx="36.11" cy="26.15" rx="10.61" ry="14.94" transform="translate(-2.1 3.17) rotate(-4.89)"></ellipse><ellipse cx="64.55" cy="26.15" rx="14.94" ry="10.61" transform="translate(28.52 85.75) rotate(-80.89)"></ellipse><ellipse cx="84.05" cy="47.09" rx="13.79" ry="9.8" transform="translate(-11.19 61.63) rotate(-37.94)"></ellipse></svg>