<svg height='100px' width='100px'  fill="#000000" xmlns="http://www.w3.org/2000/svg" xmlns:xlink="http://www.w3.org/1999/xlink" version="1.1" x="0px" y="0px" viewBox="0 0 100 100" enable-background="new 0 0 100 100" xml:space="preserve"><g><path fill="#000000" d="M44,23.4L8,44v6h6v36H8v6H2v6h96v-6h-6v-6h-6V50h6v-6L50,20v-6h6v6h12V8h-6V2H44V23.4z M32,86h-6V50h6V86z    M56,86H44V50h12V86z M74,86h-6V50h6V86z"></path></g><g display="none"><g display="inline"><circle fill="#000000" cx="26" cy="12" r="8"></circle><path fill="#000000" d="M92,30V5H53.1v25.1V38h-3l-7.2-11.6l0,0c-1.4-2.2-3.7-4.4-7.4-4.4H16.7C10.5,22,8,27.6,8,31.4v23.2    c0,1.7,1.4,3.4,3.1,3.4c1.7,0,2.9-1.7,2.9-3.4V32h3v59c-0.3,2.4,1.7,4,4.1,4c2.4,0,4.4-1.6,3.9-4V59h3v32c0,2.4,2,4,4.4,4    c2.4,0,4.4-1.6,3.6-4V32h3.5l7.3,11.9h6.4V95H58V44c0.8-0.6,1.4-2.2,1.4-3.2c0-1-0.7-1.9-1.4-2.5V30H92z"></path></g></g></svg>