<svg height='100px' width='100px'  fill="#000000" xmlns="http://www.w3.org/2000/svg" xmlns:xlink="http://www.w3.org/1999/xlink" version="1.1" x="0px" y="0px" viewBox="0 0 18 22" style="enable-background:new 0 0 18 22;" xml:space="preserve"><g><path d="M0,8v2h3c0.553,0,1,0.448,1,1v7c0,0.552-0.447,1-1,1H0v2c0,0.552,0.447,1,1,1h7c0.553,0,1-0.448,1-1V8c0-0.552-0.447-1-1-1   H1C0.447,7,0,7.448,0,8z"></path><path d="M6,3H3C2.447,3,2,3.448,2,4v2h5V4C7,3.448,6.553,3,6,3z"></path><polygon points="8,5 18,9 18,0 8,4  "></polygon></g></svg>