<svg height='100px' width='100px'  fill="#000000" xmlns:x="http://ns.adobe.com/Extensibility/1.0/" xmlns:i="http://ns.adobe.com/AdobeIllustrator/10.0/" xmlns:graph="http://ns.adobe.com/Graphs/1.0/" xmlns="http://www.w3.org/2000/svg" xmlns:xlink="http://www.w3.org/1999/xlink" version="1.1" x="0px" y="0px" viewBox="0 0 100 100" style="enable-background:new 0 0 100 100;" xml:space="preserve"><g><g i:extraneous="self"><path d="M82.8,50.4L51.3,25.5c-0.8-0.6-1.8-0.6-2.6,0L17.2,50.4C16.5,51,16,51.9,16,52.8v31.8c0,1.3,1.1,2.4,2.4,2.4h21.3    c0.7,0,1.4-0.6,1.4-1.4V61.4c0-1.3,1.1-2.4,2.4-2.4h13.3c1.3,0,2.4,1.1,2.4,2.4v24.3c0,0.7,0.6,1.4,1.4,1.4h21.3    c1.3,0,2.4-1.1,2.4-2.4V52.8C84,51.9,83.6,51,82.8,50.4z"></path><path d="M90.1,44.3L77,34V14.6c0-0.9-0.7-1.6-1.6-1.6h-5.8c-0.9,0-1.6,0.7-1.6,1.6v11.9L52.3,14.3c-1.3-1-3.1-1-4.4,0    c-7.4,5.9-31.9,25.1-38,29.9c-1.3,1-1.8,2.9-1.1,4.4c1,2,3.6,2.5,5.3,1.2l34.5-27.2c0.8-0.6,1.9-0.6,2.7,0l34.5,27.2    c0.6,0.5,1.4,0.8,2.2,0.8c1,0,2-0.5,2.7-1.3C91.9,47.7,91.6,45.5,90.1,44.3z"></path></g></g></svg>