<svg height='100px' width='100px'  fill="#000000" xmlns:x="http://ns.adobe.com/Extensibility/1.0/" xmlns:i="http://ns.adobe.com/AdobeIllustrator/10.0/" xmlns:graph="http://ns.adobe.com/Graphs/1.0/" xmlns="http://www.w3.org/2000/svg" xmlns:xlink="http://www.w3.org/1999/xlink" version="1.1" x="0px" y="0px" viewBox="0 0 100 100" style="enable-background:new 0 0 100 100;" xml:space="preserve"><g><g i:extraneous="self"><g><path d="M5273.1,2400.1v-2c0-2.8-5-4-9.7-4s-9.7,1.3-9.7,4v2c0,1.8,0.7,3.6,2,4.9l5,4.9c0.3,0.3,0.4,0.6,0.4,1v6.4     c0,0.4,0.2,0.7,0.6,0.8l2.9,0.9c0.5,0.1,1-0.2,1-0.8v-7.2c0-0.4,0.2-0.7,0.4-1l5.1-5C5272.4,2403.7,5273.1,2401.9,5273.1,2400.1z      M5263.4,2400c-4.8,0-7.4-1.3-7.5-1.8v0c0.1-0.5,2.7-1.8,7.5-1.8c4.8,0,7.3,1.3,7.5,1.8C5270.7,2398.7,5268.2,2400,5263.4,2400z"></path><path d="M5268.4,2410.3c-0.6,0-1,0.4-1,1c0,0.6,0.4,1,1,1h4.3c0.6,0,1-0.4,1-1c0-0.6-0.4-1-1-1H5268.4z"></path><path d="M5272.7,2413.7h-4.3c-0.6,0-1,0.4-1,1c0,0.6,0.4,1,1,1h4.3c0.6,0,1-0.4,1-1C5273.7,2414.1,5273.3,2413.7,5272.7,2413.7z"></path><path d="M5272.7,2417h-4.3c-0.6,0-1,0.4-1,1c0,0.6,0.4,1,1,1h4.3c0.6,0,1-0.4,1-1C5273.7,2417.5,5273.3,2417,5272.7,2417z"></path></g><g><path d="M94.4,74.2h-6.6L86,64.1h2.7c1,0,1.9-0.8,1.9-1.9c0-1-0.8-1.9-1.9-1.9H57.3c-1,0-1.9,0.8-1.9,1.9c0,1,0.8,1.9,1.9,1.9     h2.7l-1.8,10.1H29.7V63.5h14.1c3.1,0,4.8-3.7,2.7-6l-9.1-10.1h2.5c2.4,0,3.7-2.8,2.1-4.6l-7.2-8h1.8c1.8,0,2.8-2.1,1.5-3.5     l-9.9-11c-0.8-0.9-2.3-0.9-3.1,0l-9.9,11c-1.2,1.3-0.3,3.5,1.5,3.5h1.8l-7.2,8c-1.6,1.8-0.3,4.6,2.1,4.6h2.5L6.8,57.5     c-2.1,2.3-0.4,6,2.7,6h14.1v10.7h-18c-1.7,0-3.1,1.4-3.1,3.1c0,1.7,1.4,3.1,3.1,3.1h88.9c1.7,0,3.1-1.4,3.1-3.1     C97.5,75.6,96.1,74.2,94.4,74.2z M64.1,64.1h17.8l1.8,10.1H62.3L64.1,64.1z"></path><path d="M57.3,57.3h31.4c1,0,1.9-0.8,1.9-1.9v-6.5c0-1-0.8-1.9-1.9-1.9H57.3c-1,0-1.9,0.8-1.9,1.9v6.5     C55.4,56.5,56.2,57.3,57.3,57.3z"></path></g></g></g></svg>