<svg height='100px' width='100px'  fill="#000000" xmlns="http://www.w3.org/2000/svg" xmlns:xlink="http://www.w3.org/1999/xlink" xml:space="preserve" style="shape-rendering:geometricPrecision;text-rendering:geometricPrecision;image-rendering:optimizeQuality;" viewBox="0 0 6.82666 6.82666" x="0px" y="0px" fill-rule="evenodd" clip-rule="evenodd"><defs><style type="text/css">
   
    .fil1 {fill:none}
    .fil0 {fill:#000000}
   
  </style></defs><g><g><path class="fil0" d="M1.42895 4.88276c0.215972,0.110224 0.408398,0.218409 0.621098,0.329697 0.402287,0.209996 0.948929,0.568154 1.35401,0.573067 0.439654,0.00447244 0.979701,-0.369177 1.36225,-0.564748 0.216772,-0.11137 0.409681,-0.22487 0.621539,-0.330268 0.292909,-0.145327 0.939902,-0.432524 0.337087,-0.68139l-0.961106 -0.37865c0.0364331,0.183394 0.177417,0.29937 0.0413465,0.48498 -0.354043,0.484181 -1.77941,0.544957 -2.4326,0.24302 -0.62402,-0.287996 -0.348417,-0.505961 -0.304992,-0.728043 -0.20389,0.0660433 -0.429957,0.16737 -0.636547,0.250059 -0.789264,0.31411 -0.750354,0.420437 -0.00207874,0.802276l0 0z"></path><path class="fil0" d="M4.31001 2.65981c-0.0728622,0.115004 -0.165248,0.180382 -0.345984,0.239035 -0.318937,0.104248 -0.761287,0.107878 -1.08138,0.00655118 -0.184236,-0.0583425 -0.28587,-0.125669 -0.361299,-0.245587l-0.192071 0.487327c-0.0692323,0.195697 -0.176976,0.344787 -0.0190787,0.505252 0.389764,0.395031 1.77215,0.409681 2.19883,0.0105354 0.170157,-0.159535 0.0708701,-0.290122 -0.00114961,-0.498835l-0.19787 -0.50428z"></path><path class="fil0" d="M2.76681 1.99011c0.360634,0.274626 0.937067,0.27874 1.2985,-0.000488189l-0.197693 -0.597547c-0.0612638,-0.168524 -0.0728622,-0.346559 -0.441201,-0.350898 -0.384051,-0.00447244 -0.397374,0.170512 -0.457354,0.333457l-0.202252 0.615476z"></path></g></g><rect class="fil1" width="6.82666" height="6.82666"></rect></svg>