<?xml version="1.0" encoding="utf-8"?>
<!-- Generator: Adobe Illustrator 23.0.1, SVG Export Plug-In . SVG Version: 6.00 Build 0)  -->
<svg version="1.1" id="Layer_1" xmlns="http://www.w3.org/2000/svg" xmlns:xlink="http://www.w3.org/1999/xlink" x="0px" y="0px"
	 viewBox="0 0 100 100" style="enable-background:new 0 0 100 100;" xml:space="preserve">
<path d="M93.5,60.9l-2.5-7.8l-16.5,5.1l-13.9-8.1L74.7,42L91.1,47l2.5-7.8l-9.2-2.8l11.8-6.7l-5.2-9l-11.8,6.7l2.1-9.3l-8-1.8
	l-3.8,16.8l-14.1,8.1V24.7L67.9,13l-5.7-6l-7,6.6V0H44.7v13.6L37.8,7l-5.5,6l12.6,11.6v16.2l-14.1-8.1l-3.8-16.8l-8,2l2.1,9.3
	L9.3,20.5l-5.2,9l11.8,6.7l-9.2,2.8l2.5,7.8L25.5,42l14.1,8.1l-14.1,8.1L9,53.1l-2.5,7.8l9.2,2.8L4.1,70.6l5.2,9l11.8-6.7l-2.1,9.3
	l8,1.8l3.8-16.8l14.1-8.1v16.2L32.3,87l5.5,6l7-6.6V100h10.6V86.4l7,6.6l5.5-6L55.4,75.3V59.1l14.1,8.1l3.8,16.8l8-1.8l-2.1-9.3
	l11.8,6.7l5.2-9l-11.8-6.7L93.5,60.9z M50,50.1L50,50.1L50,50.1L50,50.1L50,50.1L50,50.1L50,50.1z"/>
</svg>
