<svg height='100px' width='100px'  fill="#000000" xmlns="http://www.w3.org/2000/svg" xmlns:xlink="http://www.w3.org/1999/xlink" version="1.1" x="0px" y="0px" viewBox="0 0 100 100" enable-background="new 0 0 100 100" xml:space="preserve"><g><path d="M83.95,52.459c4.171-4.482,3.742-11.129,3.722-11.41l-0.128-1.777h-11.68v-7.837c3.343-0.344,6.057-1.618,8.086-3.798   c4.171-4.483,3.742-11.13,3.722-11.411l-0.128-1.777h-11.68V5.03H24.303v9.418h-11.68l-0.128,1.777   c-0.021,0.281-0.449,6.928,3.722,11.411c2.029,2.18,4.743,3.454,8.086,3.798v7.837h-11.68l-0.128,1.777   c-0.021,0.281-0.449,6.928,3.722,11.41c2.029,2.181,4.743,3.453,8.086,3.797v7.839h-11.68l-0.128,1.777   c-0.021,0.282-0.449,6.927,3.722,11.411c2.029,2.18,4.743,3.454,8.086,3.797v13.983h51.562V81.08   c3.343-0.343,6.057-1.617,8.086-3.797c4.171-4.484,3.742-11.129,3.722-11.411l-0.128-1.777h-11.68v-7.839   C79.208,55.912,81.921,54.64,83.95,52.459z M49.559,84.848c-4.824,0-8.734-3.911-8.734-8.735c0-4.823,3.91-8.733,8.734-8.733   s8.735,3.91,8.735,8.733C58.294,80.937,54.383,84.848,49.559,84.848z M49.559,58.938c-4.824,0-8.734-3.91-8.734-8.735   c0-4.823,3.91-8.734,8.734-8.734s8.735,3.911,8.735,8.734C58.294,55.027,54.383,58.938,49.559,58.938z M49.559,33.026   c-4.824,0-8.734-3.909-8.734-8.734s3.91-8.734,8.734-8.734s8.735,3.909,8.735,8.734S54.383,33.026,49.559,33.026z"></path></g></svg>