<svg height='100px' width='100px'  fill="#000000" xmlns="http://www.w3.org/2000/svg" xmlns:xlink="http://www.w3.org/1999/xlink" version="1.1" x="0px" y="0px" viewBox="0 0 500 500" enable-background="new 0 0 500 500" xml:space="preserve"><g><polygon points="35.4,200 183.8,179.4 250.9,45.6 316.3,180.3 464.4,202.8 356.5,306.6 380.8,454.4 248.7,383.9    115.7,452.7 142,305.3  "></polygon><g><path d="M38.1,209.7c43.7-6.1,87.3-12.1,131-18.2c5.6-0.8,11.7-1,17.2-2.4c6.1-1.5,8.5-9.3,11-14.3    c11.6-23.1,23.2-46.2,34.7-69.3c9.2-18.3,18.4-36.6,27.6-54.9c-5.8,0-11.5,0-17.3,0c19.3,39.7,38.5,79.3,57.8,119    c2.5,5.1,4.7,10.7,7.6,15.7c3.4,5.7,10.9,5.5,16.7,6.3c25.5,3.9,51.1,7.8,76.6,11.6c20.3,3.1,40.5,6.2,60.8,9.2    c-1.5-5.6-2.9-11.1-4.4-16.7c-31.8,30.6-63.5,61.1-95.3,91.7c-4.2,4-8.7,7.8-12.6,12.1c-4.8,5.2-1.9,14.1-0.9,20.5    c4.1,25.2,8.3,50.3,12.4,75.5c3.4,20.5,6.8,41.1,10.2,61.6c4.9-3.8,9.8-7.5,14.7-11.3c-38.9-20.8-77.8-41.5-116.6-62.3    c-5.1-2.7-10.2-5.7-15.4-8.2c-6.9-3.3-13.7,1.8-19.8,4.9c-22.6,11.7-45.3,23.4-67.9,35.2c-18.5,9.6-37,19.1-55.5,28.7    c4.9,3.8,9.8,7.5,14.7,11.3c7.7-43.4,15.5-86.8,23.2-130.2c1-5.7,2.1-11.4,3.1-17.2c1.3-8-5.2-12.4-10.3-17.4    c-18.1-17.9-36.3-35.8-54.4-53.8c-14.8-14.6-29.6-29.3-44.4-43.9c-9.2-9.1-23.3,5.1-14.1,14.1c31.1,30.7,62.2,61.5,93.4,92.2    c4.4,4.3,8.8,8.7,13.2,13c-0.9-3.2-1.7-6.5-2.6-9.7c-7.7,43.1-15.3,86.1-23,129.2c-1.1,6.1-2.2,12.2-3.3,18.3    c-1.5,8.6,6.6,15.5,14.7,11.3c38.8-20.1,77.7-40.2,116.5-60.3c5.5-2.8,11-5.7,16.5-8.5c-3.4,0-6.7,0-10.1,0    c38.6,20.6,77.2,41.2,115.7,61.8c5.5,2.9,10.9,5.8,16.4,8.7c8.2,4.4,16.1-2.8,14.7-11.3c-7.1-43.2-14.2-86.3-21.3-129.5    c-1-6.1-2-12.2-3-18.3c-0.9,3.2-1.7,6.5-2.6,9.7c31.5-30.3,63-60.7,94.6-91c4.5-4.3,8.9-8.6,13.4-12.9c5-4.8,3.2-15.6-4.4-16.7    c-43.2-6.6-86.5-13.1-129.7-19.7c-6.1-0.9-12.2-1.9-18.3-2.8c2,1.5,4,3.1,6,4.6c-19.1-39.3-38.2-78.7-57.3-118    c-2.7-5.6-5.4-11.1-8.1-16.7c-3.2-6.6-14-6.5-17.3,0c-19.6,39.1-39.2,78.2-58.8,117.3c-2.8,5.5-5.5,11.1-8.3,16.6    c2-1.5,4-3.1,6-4.6c-43.3,6-86.6,12-130,18c-6.1,0.8-12.3,1.7-18.4,2.5c-5.4,0.7-8.3,7.6-7,12.3C27.3,208.4,32.7,210.4,38.1,209.7    z"></path></g></g></svg>