<svg height='100px' width='100px'  fill="#000000" xmlns="http://www.w3.org/2000/svg" xmlns:xlink="http://www.w3.org/1999/xlink" version="1.1" x="0px" y="0px" viewBox="0 0 100 100" style="enable-background:new 0 0 100 100;" xml:space="preserve"><g><g><path d="M54.686,58.823c4.387,0,7.955-3.569,7.955-7.956V20.198H37.359v30.669c0,4.387,3.569,7.956,7.956,7.956H54.686z"></path><path d="M77.453,71.205c-2.962,0-5.363,2.402-5.363,5.363v4.957h-2.762v-4.568c0-4.332,3.081-8.078,7.327-8.904l1.517-0.297    l2.453-47.558H66.166v31.081c0,6.016-4.895,10.908-10.91,10.908H44.744c-6.015,0-10.909-4.893-10.909-10.908V20.198H19.375    l2.453,47.558l1.517,0.297c4.246,0.827,7.327,4.572,7.327,8.904v4.568h-2.903v-4.957c0-2.961-2.401-5.363-5.363-5.363    c-2.962,0-5.364,2.402-5.364,5.363v18.068c0,2.962,2.401,5.363,5.364,5.363c2.962,0,5.363-2.401,5.363-5.363v-3.859h2.903v3.99    h38.656v-3.99h2.762v3.859c0,2.962,2.401,5.363,5.363,5.363c2.963,0,5.364-2.401,5.364-5.363V76.568    C82.817,73.607,80.416,71.205,77.453,71.205z M30.672,86.811h-2.903v-1.318h2.903V86.811z M72.09,86.811h-2.709v-1.318h2.709    V86.811z"></path><path d="M78.689,5.27h-1.795c0-3.17-1.611-5.27-5.747-5.27H28.853c-3.97,0-5.748,2.1-5.748,5.27h-1.794    c-4.16,0-7.544,3.385-7.544,7.544v3.425h5.405h14.663h1.984h28.363h1.984h14.662h5.406v-3.425    C86.234,8.654,82.85,5.27,78.689,5.27z"></path></g></g></svg>