<svg height='100px' width='100px'  fill="#000000" xmlns="http://www.w3.org/2000/svg" xmlns:xlink="http://www.w3.org/1999/xlink" xml:space="preserve" version="1.1" style="shape-rendering:geometricPrecision;text-rendering:geometricPrecision;image-rendering:optimizeQuality;" viewBox="0 0 453 547" x="0px" y="0px" fill-rule="evenodd" clip-rule="evenodd"><defs><style type="text/css">
   
    .fil0 {fill:#000000}
   
  </style></defs><g><path class="fil0" d="M227 0c35,63 76,123 128,180 -18,-4 -37,-6 -55,-7 31,43 64,85 101,126 -28,-5 -55,-8 -82,-10 40,58 85,114 134,169 -58,-11 -115,-15 -172,-16l0 105 -109 0 0 -105c-57,1 -114,5 -172,16 50,-55 94,-111 134,-169 -27,2 -54,5 -82,10 37,-41 71,-83 101,-126 -18,1 -36,3 -55,7 52,-57 94,-117 129,-180z"></path></g></svg>