<svg height='100px' width='100px'  fill="#000000" xmlns="http://www.w3.org/2000/svg" xmlns:xlink="http://www.w3.org/1999/xlink" version="1.1" x="0px" y="0px" viewBox="0 0 100 100" style="enable-background:new 0 0 100 100;" xml:space="preserve"><path d="M50,23c-14.9,0-27,12.1-27,27s12.1,27,27,27s27-12.1,27-27S64.9,23,50,23z M38,54c-2.2,0-4-1.8-4-4s1.8-4,4-4s4,1.8,4,4  S40.2,54,38,54z M50,54c-2.2,0-4-1.8-4-4s1.8-4,4-4s4,1.8,4,4S52.2,54,50,54z M62,54c-2.2,0-4-1.8-4-4s1.8-4,4-4s4,1.8,4,4  S64.2,54,62,54z"></path></svg>